<svg id="Layer_1" xmlns="http://www.w3.org/2000/svg" viewBox="0 0 510 469"><style>.st0{fill:#feb}.st1{fill:#e0e7ee}.st2{fill:#fefefe}.st3{fill:#fbe3d5}.st4{fill:#c3996b}.st5{fill:#3b4249}.st6{fill:#e4c09d}.st7{fill:#d5b6a5}.st8{fill:#edd4c6}.st9{fill:#84bde1}.st10{fill:#b5def2}.st11{fill:#e4e6e9}.st12{fill:#cdcfd2}.st13{fill:#fbe4d6}.st14,.st15,.st16{opacity:.1;fill:#010202}.st15,.st16{enable-background:new}.st16{fill:#be1e2c}</style><title>homepage-profit-passion</title><path class="st0" d="M453.3 240.6c-1.5-6.1-3.8-12-6.6-17.6-4-8.3-8.5-16.6-13.5-24.3-3-4.7-6.3-9.3-9.2-14.1-.5-1.2-1-2.5-1.5-3.8-.1-1.3-.2-2.5-.3-3.8 1.1-9.7 3.9-19.2 6.2-28.7 3.6-15.1 4.8-30.7 1.4-46-2.1-9.4-5.2-16.7-9.9-25.3-3.8-6.8-8.9-12.2-14.3-17.9-10.9-11.4-26.8-18.7-42.1-21.7-17.5-3.4-35.2-.9-52.1 3.9C302 44 293 47.9 284.1 52c-1.9-.9-3.9-1.5-6.1-2.1-9.1-2.4-17.7-4.4-27.1-5.3-12.2-1.2-24.4.1-36.4 2.3-20.6 3.8-41.1 9-60.9 15.8-18.8 6.5-37.2 15.7-54 26.3-7.3 4.6-14.3 9.7-20.8 15.3-8.4 7.1-17.3 14.8-23.7 23.8-9.8 13.9-15.3 29.9-12.6 46.8 1.7 11 5.7 21.1 8.6 31.7.2 1.3.3 2.5.4 3.8-.4 2.2-.8 4.4-1.4 6.6-1.4 3.9-2.8 7.7-4.1 11.6-1.7 5.1-3.6 10.4-4.6 15.7-1 5.1-1.1 10.3-1.2 15.4-.2 15.8 6.8 33.1 17.2 44.9 7.4 8.4 14.3 14 24 19.8 7 4.2 15 6.7 22.8 8.8 10.4 2.9 21.4 2 31.9 4.2.4.4.9.7 1.3 1.1 2.6 3.3 5 6.8 7.4 10.3 4.5 6.6 9.6 12.8 15.3 18.5 5.8 5.9 13.3 10.6 20.8 14.1 7.7 3.6 16.3 6.1 24.7 7.5 15.6 2.5 32.1 2.1 47.8-.1 16.4-2.4 32.9-6.5 48.3-12.8 15.3-6.3 29.1-15.2 43.5-23.2 3-1.4 6.1-2.7 9.2-3.8 2.1-.3 4.3-.4 6.4-.4 7.1.5 14.3 1.2 21.5 1.4 8.4.2 17.2-1.3 25.1-4.2 7.1-2.6 14.2-6.5 19.9-11.5 8.3-7.3 13.6-13.8 19.4-23.2 8.2-13.6 10.9-29.4 10.9-45-.1-8.5-2.2-17.1-4.3-25.5z"/><path class="st1" d="M488.3 447.7c-1.2-.6-3.4-1.8-5.5-2-1.8-.2-3.5-.2-5.3-.3-2.4-.1-4.8-.2-7.1-.4-6-.6-11.9-1.9-17.8-2.7-6.3-.9-12.8-1.2-19.3-1.2-1.2-2.7-3.5-4.6-6.2-5.8-3.6-3.1-7.8-3.1-12.7-2.1-.6.1-1.3.3-1.9.4-6.4.8-12.7 2.5-19 3.6-7.4 1.3-14.9 2.3-22.4 3.2-7.2.8-15.1.5-22.1 2.3-18.2-2.4-36.7-2.9-55.1-3.3-23.8-.6-47.7.5-71.4 1.9-23.8 1.4-47.4 3.8-71.2 5.8-11.6 1-23.3 1.7-35 1.2-11.5-.5-22.7-3.1-34.2-4.1-13-1.1-25.5.9-38.3 3.3-6 1.1-11.9 2.1-18 2.6-6.3.6-12.7.3-19 .8-7.4.6-9.6 11.5-2.6 14.5 10.8 4.6 22.8 3.1 34.1 1.5 11.1-1.6 22.3-3.7 33.6-3.7 10.8 0 21.6 2.7 32.4 3.9 12.2 1.4 24.5 1.4 36.8.8 24-1.1 47.9-3.8 71.9-5 23.8-1.2 47.6-2 71.4-2.4 17.5-.3 35.1-.5 52.7-1.7.3.3.7.5 1 .7 3.8 2.5 7.9 4.2 12.3 5.4 8.8 2.3 18.1 1.8 26.9-.1 6.8-1.5 13.2-3.8 19.6-6.3 6.3-1.1 12.5-2 18.9-2.3 5.8-.2 11.7 0 17.4.9 6.2 1.1 12.2 2.9 18.3 4.3 6 1.4 12.1 3 18.3 3.6 3.5.3 7.1.5 10.6 0 1.7-.2 3.5-.5 5.1-1.1 2.3-.9 3.6-2.6 5.3-4.3 3.9-3.3 1.6-9.8-2.5-11.9"/><path class="st2" d="M426.9 187.3c.1-3.3-2.1-6.4-5-8.2 2-1 3.8-2.3 5.2-4.4 5.6-8.3-.3-18.5-9.3-20.5-6.1-1.4-13-1.2-19.2-1.1-3.2 0-6.4 0-9.4 1.1-4.2 1.6-7.4 5.7-8.2 10.1-.5 2.7-.2 5.3.3 8 .2 1.1.4 2.3.5 3.4.1.8.1 1.5.2 2.3v.4c-.1.5-.1 1.1-.3 1.6 0-.2.3-1.3 0-.1 0 .1 0 .2-.1.3l-.1.1c-.3.4-.6.8-1 1.2 1.1-1.2-.6.4-1.1.8-1.1.8-2.3 1.6-3.5 2.3-5.7 3.4-11.6 7.2-12.6 14.4-.9 6.7 2.5 13.6 6.3 18.9 3.4 4.9 8.2 8.8 13.8 11 6.8 2.6 14.1 4.2 21.1 6.2 7.1 2 15.2 2.2 20.4-4 5.4-6.4 3-14.9 2.4-22.4-.5-7.2-.6-14.3-.4-21.4M277.8 62.6c-.3-.1-.5-.2-.8-.3v-.4c.4-4.3 1.4-9.1 1.1-13.4-.3-3.6-1.9-6.2-4.1-8-1.2-3.3-4-5.9-8-6.7-9.3-1.9-18.7-1.8-28 .1-3.5-.1-7.1-.2-10.6-.1-4.6.1-9.3.4-13.2 3.2-5.1 3.7-6.5 9.4-5.2 15.3-.8 4 .3 8 2.5 11.7-.1 0-.1.1-.2.1l-.3.2-.8.4c-1.5.7-3.1 1.4-4.4 2.4-2.8 2.1-4.6 5.1-5.1 8.5-1 6.2 3 12.8 7.4 16.9 3.4 3.2 8 5.6 12.6 6.3 5.2.9 9.8-.5 14.8-1.3 9.3-1.4 18.8.9 28.1-.5 10.9-1.6 23.6-7.7 23.4-20.5-.1-6-3.5-11.5-9.2-13.9M87.1 204.3s-.1-.1 0 0l-.1-.1c-.1-.2-.1-.4-.1-.6-.1-.8-.2-3-.2-3.2 0-.4.2-2.6.2-3.6.4-6.9-.8-13.1-3.1-19.7-3.8-10.9-10.4-21-22.2-24-11.1-2.9-26.4 1.1-32 11.9-3.6 7-.3 13.2 3.2 19.3 2 3.4 4.4 6.6 7.3 9.3-.6 3.3-1.2 6.6-1.2 9.9.1 5.2 3.1 10.2 7.8 12.4 4.7 2.2 10.1.8 15 .2.3 0 .6-.1 1-.1 1 .8 2 1.4 3.1 2.1 1.7.9 3.5 1.3 5.2 1.1.6.6 1.2 1.2 1.9 1.8 4.5 3.8 11.6 3.2 15.4-1.3 3.9-4.6 3.3-11.6-1.2-15.4m298.9-100c-2.1 0-3.7 1.7-3.7 3.8 0 2 1.7 3.6 3.7 3.7 2.1 0 3.7-1.7 3.7-3.8-.1-2-1.7-3.7-3.7-3.7m0 11.7c-4.4 0-8-3.6-8-8s3.6-8 8-8 8 3.6 8 8-3.6 8-8 8m-233.5-5.8c-2.1 0-3.7 1.7-3.7 3.7 0 2.1 1.7 3.7 3.7 3.7 2.1 0 3.7-1.7 3.7-3.7 0-2.1-1.7-3.7-3.7-3.7m0 11.7c-4.4 0-8-3.6-8-8s3.6-8 8-8 8 3.6 8 8c-.1 4.4-3.6 8-8 8M94.8 222.2c-2.1 0-3.7 1.8-3.6 3.8 0 2 1.7 3.6 3.6 3.6 2.1 0 3.7-1.8 3.6-3.8 0-1.9-1.6-3.5-3.6-3.6m0 11.7c-4.4 0-8-3.6-8-8s3.6-8 8-8 8 3.6 8 8-3.6 8-8 8m273.6 44.4c-2.1 0-3.7 1.7-3.7 3.8 0 2 1.7 3.6 3.7 3.7 2.1 0 3.7-1.7 3.7-3.8 0-2-1.7-3.6-3.7-3.7m0 11.8c-4.4 0-8-3.6-8-8s3.6-8 8-8 8 3.6 8 8-3.6 8-8 8m-5.8-114.8c-.8 0-1.5-.4-2-1.1l-12.3-18.8c-.7-1.1-.4-2.5.7-3.2 1.1-.7 2.5-.4 3.2.7l12.3 18.8c.7 1.1.4 2.5-.7 3.2-.3.3-.8.4-1.2.4m-219 14.2c-1.3 0-2.3-1-2.3-2.3 0-.2 0-.4.1-.6l6.1-21.7c.3-1.2 1.6-2 2.9-1.6 1.2.3 2 1.6 1.6 2.9l-6.1 21.7c-.4.9-1.3 1.6-2.3 1.6m170.5-79.9c-.7 0-1.4-.4-1.8-1-.6-1-.2-2.2.7-2.8l14.5-8.4c1-.6 2.2-.2 2.8.7.6 1 .2 2.2-.7 2.8l-14.5 8.4c-.3.2-.7.3-1 .3M124.3 288.3c-1.1 0-2-.9-2-2 0-.7.4-1.4 1-1.8l14.5-8.5c1-.6 2.2-.2 2.8.7.6 1 .2 2.2-.7 2.8l-14.5 8.4c-.4.3-.7.4-1.1.4M325 251.2c-.7 0-1.4-.4-1.8-1-.6-1-.2-2.2.7-2.8l14.5-8.4c1-.6 2.2-.2 2.8.7.6 1 .2 2.2-.7 2.8L326 251c-.3.1-.6.2-1 .2"/><path class="st3" d="M306.3 329.8v114.8H180.5V329.8c0-21.5 17.5-39 39-39h5.6c3 0 5.5-2.5 5.5-5.5v-19.6h25.1v19.6c0 3 2.4 5.5 5.5 5.5h6.3c21.3 0 38.8 17.5 38.8 39"/><path class="st4" d="M291.9 145.8c-4.1-5.3-7.8-6.6-11.7-8.8-10.7-5.9-16.3-18-27.3-19.1-16.6-1.8-20.1 10.7-42.3 21-13.8 6.4-14.6 7.3-19.4 12.3-14.7 15 .1 54.9.1 54.9l17.1-19 76.2 3.9 8.7 15c1.3.4 11-44.2-1.4-60.2"/><path class="st5" d="M249.8 119.2c-7.5 0-12 3.4-18.5 8.4-4.9 3.7-11 8.4-20.1 12.6-13.4 6.2-14.2 7.1-18.8 11.7l-.2.2c-11.9 12.2-3.2 42.4-.4 51.1l15.4-17.1c.3-.3.7-.5 1.2-.5l76.2 3.9c.5 0 1 .3 1.2.7l7.1 12.4c1.1-4.1 2.7-12.6 3.4-22.4.7-11.1.4-25.9-5.6-33.6-3.2-4.2-6.2-5.7-9.4-7.4-.6-.3-1.2-.6-1.8-1-4.5-2.5-8.1-6-11.6-9.3-4.7-4.6-9.2-9-15.2-9.6-.9 0-1.9-.1-2.9-.1m-58.5 88.4c-.6 0-1.2-.4-1.4-1-.6-1.7-14.9-41 .3-56.5l.2-.2c4.8-4.9 5.8-5.9 19.7-12.4 8.8-4.1 14.5-8.4 19.5-12.3 7.3-5.6 13-9.9 23.5-8.8 7 .8 11.9 5.5 17 10.4 3.3 3.2 6.8 6.6 10.9 8.9l1.8.9c3.3 1.7 6.7 3.5 10.3 8.2 12.1 15.7 3.9 58.3 1.6 61.8-.6 1-1.5.9-1.8.8-.4-.1-.7-.3-1-.7l-8.3-14.4-74.7-3.8-16.6 18.4c-.2.5-.6.7-1 .7"/><path class="st6" d="M220.5 150.5c-.8 0-1.5-.7-1.5-1.5 0-.6.4-1.2 1-1.4.1 0 13.3-5 24.1-20.3.5-.7 1.4-.8 2.1-.4.7.5.8 1.4.4 2.1-11.4 16.1-24.9 21.2-25.5 21.4-.3.1-.4.1-.6.1m13.1 0c-.8 0-1.5-.7-1.5-1.5 0-.4.2-.9.5-1.1.1-.1 7.4-6.1 10.8-9.7.6-.6 1.5-.6 2.1-.1.6.6.6 1.5.1 2.1-3.5 3.8-10.8 9.7-11.1 10-.2.2-.5.3-.9.3m15-12.1c-.8 0-1.5-.7-1.5-1.5 0-.4.2-.8.5-1.1 0 0 3.1-2.7 4.8-8.1.2-.8 1-1.2 1.8-1 .8.2 1.2 1 1 1.8v.1c-2 6.2-5.5 9.3-5.7 9.4-.2.3-.5.4-.9.4m-3.9 12.1c-.8 0-1.5-.7-1.5-1.5 0-.6.3-1.1.8-1.3.1 0 9.3-4.8 12.1-13.2.3-.8 1.1-1.2 1.9-.9.8.3 1.2 1.1.9 1.9-3.2 9.6-13.2 14.7-13.6 14.9-.1 0-.4.1-.6.1m-47.6 6.5c-.8 0-1.5-.7-1.5-1.5 0-.4.1-.7.4-1 1.4-1.6 3.1-3 4.8-4.2.7-.5 1.6-.3 2 .4.5.7.3 1.6-.4 2.1-1.6 1.1-3 2.3-4.3 3.7-.1.3-.5.5-1 .5m-7.6 16.3c-.8 0-1.5-.7-1.5-1.5v-.2c0-.3 1-6.9 5.2-13.4.4-.7 1.3-.9 2-.5s.9 1.4.4 2c-3.8 5.9-4.7 12.1-4.7 12.2-.1.9-.7 1.4-1.4 1.4m92.8-24.6c-.4 0-.8-.1-1-.4-1.3-1.3-2.9-2.5-4.5-3.5-.7-.4-.9-1.3-.5-2s1.3-.9 2-.5c1.9 1.1 3.6 2.4 5.1 3.9.6.6.6 1.5 0 2.1-.3.2-.7.4-1.1.4m8.1 13.5c-.7 0-1.3-.5-1.4-1.2 0-.1-.8-4-4.9-9.6-.5-.7-.3-1.6.3-2.1.7-.5 1.6-.3 2.1.3 4.5 6.2 5.4 10.6 5.4 10.7.2.8-.4 1.6-1.2 1.7-.1.2-.2.2-.3.2"/><path class="st7" d="M243.1 274.8c-9.3 0-12.5-5.1-12.5-5.1v-4.1h25.1v4.1c-.1 0-3.3 5.1-12.6 5.1"/><path class="st8" d="M267.3 291.5h-.3v1.1c0 13.1-10.6 23.7-23.7 23.7s-23.7-10.6-23.7-23.7v-1.1h-.3c-21.4 0-39 17.6-39 39v114.8h125.8V330.5c.2-21.5-17.3-39-38.8-39"/><path class="st5" d="M182.3 442.8h122.2v-113c0-20.5-16.7-37.3-37.2-37.3H261c-4 0-7.3-3.3-7.3-7.3v-17.8h-21.5v17.8c0 4-3.3 7.3-7.2 7.3h-5.6c-20.5 0-37.2 16.7-37.2 37.3l.1 113zm124 3.6H180.5c-1 0-1.8-.8-1.8-1.8V329.8c0-22.5 18.3-40.8 40.7-40.8h5.6c2 0 3.7-1.7 3.7-3.7v-19.6c0-1 .8-1.8 1.8-1.8h25.1c1 0 1.8.8 1.8 1.8v19.6c0 2 1.7 3.7 3.7 3.7h6.3c22.5 0 40.7 18.3 40.7 40.8v114.8c0 1-.8 1.8-1.8 1.8z"/><path class="st9" d="M306.3 329.8v114.8H180.5V329.8c0-19.3 14.2-35.5 32.6-38.5.2 16.6 13.6 30 30.3 30 16.6 0 30.1-13.4 30.3-30 18.4 3 32.6 19.2 32.6 38.5"/><path class="st3" d="M294.2 192v30.5c0 25.3-20.6 46-45.9 46h-10.7c-25.2 0-45.9-20.7-45.9-46V191c0-4.3 2.2-12 5.4-18.7 3.2-6.7 7.6-12.2 11.9-12.2 0 0 17.6 6.9 36 6.9 17.2 0 35.3-6.9 35.3-6.9 8.5 0 13.9 23.3 13.9 31.9"/><path class="st7" d="M294.2 186.4l-11.8-15.3c-2.3-3-6.1-4.5-9.8-3.9l-15.8 4.4c-1.3.4-2.6.7-3.9.8-6.3.8-12.8.9-19.1.1-1.7-.2-3.3-.5-4.9-1l-14.9-4.3c-3.5-.6-7.1.7-9.5 3.4l-12.9 14.8c0-4.3 3.6-9.1 6.8-15.7 3.2-6.7 6.1-9.5 10.4-9.5 0 0 17.6 6.9 36 6.9 17.2 0 36.6-7.4 36.6-7.4 8.8-.1 12.8 18.1 12.8 26.7m-51.1 72.7c43.5 0 51.1-36.6 51.1-36.6 0 25.3-20.6 46-45.9 46h-10.7c-25.2 0-45.9-20.7-45.9-46 0 0 7.7 36.6 51.4 36.6"/><path class="st5" d="M208.7 161.9c-3 .3-6.7 4.4-10 11.2-3 6.2-5.2 13.7-5.2 17.9v31.5c0 24.4 19.8 44.2 44.1 44.2h10.7c24.3 0 44.1-19.8 44.1-44.2V192c0-9.5-5.6-29.5-11.9-30.1-2.7 1-19.3 6.9-35.5 6.9-17.3 0-33.7-5.9-36.3-6.9m39.6 108.4h-10.7c-26.3 0-47.7-21.4-47.7-47.7V191c0-4.7 2.3-12.7 5.6-19.5 2.4-4.9 7.4-13.2 13.4-13.2.2 0 .4 0 .6.1.2.1 17.5 6.8 35.4 6.8 16.7 0 34.4-6.7 34.6-6.8.2-.1.4-.1.6-.1 10.3 0 15.7 25 15.7 33.7v30.5c.2 26.4-21.2 47.8-47.5 47.8"/><path class="st10" d="M214.7 291.8c-2.7.4-5.3 1.2-7.9 2.2 0 19.3 16.4 34.9 36.6 34.9S280 313.3 280 294v-.3c-2.3-.9-4.7-1.5-7.2-2-.2 15.9-13.1 28.8-29.1 28.8-15.9.2-28.8-12.7-29-28.7"/><path class="st5" d="M182.3 442.8h122.2v-113c0-17.3-12.4-32.6-29.2-36.4-1.3 16.5-15.2 29.6-31.9 29.6-16.8 0-30.7-13.1-31.9-29.6-16.8 3.7-29.2 19-29.2 36.4v113zm124 3.6H180.5c-1 0-1.8-.8-1.8-1.8V329.8c0-19.7 14.7-37 34.1-40.3 1-.2 1.9.5 2 1.5v.3c.2 15.6 12.9 28.2 28.5 28.2s28.3-12.7 28.5-28.2c0-1 .8-1.8 1.8-1.8h.3c9.4 1.6 18 6.4 24.3 13.8 6.3 7.4 9.8 16.8 9.8 26.5v114.8c.1 1-.7 1.8-1.7 1.8zm-147.1 7.8H38c-1 0-1.8-.8-1.8-1.8s.8-1.8 1.8-1.8h121.3c1 0 1.8.8 1.8 1.8-.1 1-.9 1.8-1.9 1.8m319.2 0h-29.1c-1 0-1.8-.8-1.8-1.8s.8-1.8 1.8-1.8h29.1c1 0 1.8.8 1.8 1.8s-.8 1.8-1.8 1.8m-275.9 0h-22c-1 0-1.8-.8-1.8-1.8s.8-1.8 1.8-1.8h22c1 0 1.8.8 1.8 1.8s-.8 1.8-1.8 1.8m200.8 0H219.5c-1 0-1.8-.8-1.8-1.8s.8-1.8 1.8-1.8h183.7c1 0 1.8.8 1.8 1.8s-.8 1.8-1.7 1.8"/><path class="st11" d="M328.5 345.6V436c0 4.7-3.8 8.5-8.5 8.5H166.8c-4.7 0-8.5-3.8-8.5-8.5v-90.5c0-4.7 3.8-8.5 8.5-8.5H320c4.7.1 8.5 3.9 8.5 8.6"/><path class="st12" d="M328.5 426.1v9.9c0 4.7-3.8 8.5-8.5 8.5H166.8c-4.7 0-8.5-3.8-8.5-8.5v-10l170.2.1z"/><path class="st5" d="M158.3 392.6c-1 0-1.8-.8-1.8-1.8v-17.9c0-1 .9-1.7 1.8-1.7s1.7.8 1.7 1.7v17.9c.1 1-.7 1.8-1.7 1.8"/><path class="st5" d="M320 446.4H166.8c-5.7 0-10.3-4.6-10.3-10.3v-34.3c0-1 .9-1.7 1.8-1.7s1.7.8 1.7 1.7v34.3c0 3.7 3 6.8 6.7 6.8H320c3.7 0 6.7-3 6.7-6.8v-90.5c0-3.7-3-6.8-6.7-6.8H166.8c-3.7 0-6.7 3-6.7 6.8v17.8c0 1-.8 1.8-1.8 1.8s-1.8-.8-1.8-1.8v-17.8c0-5.7 4.6-10.3 10.3-10.3H320c5.7 0 10.3 4.6 10.3 10.3V436c0 5.7-4.6 10.4-10.3 10.4"/><path class="st2" d="M316.9 374.4c-.8 0-1.4-.6-1.4-1.4v-16.3c0-3.9-3.2-7.1-7.1-7.1h-18.3c-.8 0-1.4-.6-1.4-1.4 0-.8.6-1.4 1.4-1.4h18.3c5.5 0 9.9 4.5 9.9 9.9V373c.1.7-.6 1.4-1.4 1.4M280 349.6h-12.8c-.8 0-1.4-.6-1.4-1.4 0-.8.6-1.4 1.4-1.4H280c.8 0 1.4.6 1.4 1.4 0 .7-.6 1.4-1.4 1.4M248.3 398c6.7 8 1.6 11.6-4.8 11.6s-11.6-5.2-11.6-11.6c0-6.4 5.2-11.6 11.6-11.6s9.4 5.8 4.8 11.6"/><path class="st5" d="M243.4 388.1c-5.4 0-9.8 4.4-9.8 9.8s4.4 9.8 9.8 9.8c3 0 5.4-.9 6-2.3.7-1.4-.2-3.7-2.5-6.4-.5-.6-.6-1.6 0-2.3 1.8-2.2 2.3-4.5 1.4-6.2-.7-1.4-2.6-2.4-4.9-2.4m0 23.3c-7.4 0-13.4-6-13.4-13.4s6-13.4 13.4-13.4c3.7 0 6.7 1.7 8.1 4.5 1.3 2.6.9 5.8-1 8.8 2.6 3.5 3.4 6.6 2.2 9.1-1.3 2.8-4.8 4.4-9.3 4.4"/><path class="st11" d="M241.6 379.4s1.3-4.6 4.9-5.7"/><path class="st5" d="M241.6 381.2c-1 0-1.8-.8-1.8-1.8 0-.2 0-.3.1-.5s1.6-5.6 6.1-6.9c.9-.3 1.9.3 2.2 1.3.2.9-.3 1.9-1.2 2.1-2.5.8-3.7 4.4-3.7 4.5-.2.8-.9 1.3-1.7 1.3"/><path class="st13" d="M216.6 197.8c2.3-4 7.3-5.3 11.3-3 1.3.7 2.3 1.8 3 3"/><path class="st5" d="M231 199.2c-.5 0-1-.3-1.2-.7-1.2-2.1-3.5-3.4-5.9-3.4-2.5 0-4.7 1.3-5.9 3.4-.4.7-1.3.9-1.9.5-.7-.4-.9-1.3-.5-1.9 1.7-3 4.9-4.8 8.4-4.9 3.4 0 6.7 1.9 8.4 4.9.4.7.2 1.5-.5 1.9-.4.1-.7.2-.9.2"/><path class="st13" d="M252.9 197.8c2.3-4 7.3-5.3 11.3-3 1.3.7 2.3 1.8 3 3"/><path class="st5" d="M267.2 199.2c-.5 0-1-.3-1.2-.7-1.2-2.1-3.5-3.4-5.9-3.4-2.4 0-4.7 1.3-5.9 3.4-.4.7-1.3.9-1.9.5s-.9-1.3-.5-1.9c1.7-3 4.9-4.8 8.4-4.9 3.5 0 6.7 1.9 8.4 4.9.4.7.2 1.5-.5 1.9-.4.1-.6.2-.9.2m-25.7 26.2c-.8 0-1.4-.6-1.4-1.4 0-.8.6-1.4 1.4-1.4 1.6 0 3.6-1.1 4.9-2-1.7-2.8-2.7-6.9-2.8-7.4-.2-.8.3-1.5 1.1-1.7s1.5.3 1.7 1.1c.3 1.5 1.6 5.7 3.1 7.4.5.6.5 1.5-.1 2-.3.1-4.2 3.4-7.9 3.4m-2.5 18.9h-.1c-11.1-.9-13.2-9.1-13.3-9.5-.2-.8.3-1.5 1.1-1.7.7-.1 1.4.3 1.6 1 .1.3 1.9 6.6 10.8 7.3.8.1 1.4.7 1.3 1.5 0 .8-.6 1.4-1.4 1.4"/><path class="st0" d="M100.8 444.6h24.8v-37h-24.8v37z"/><path class="st5" d="M102.6 442.8h21.3v-33.4h-21.3v33.4zm23.1 3.6h-24.8c-1 0-1.8-.8-1.8-1.8v-37c0-1 .8-1.8 1.8-1.8h24.8c1 0 1.8.8 1.8 1.8v37c-.1 1-.8 1.8-1.8 1.8z"/><path class="st5" d="M125.7 439.7c-1 0-1.8-.8-1.8-1.8s.8-1.8 1.8-1.8c5.5 0 10-4.5 10-10s-4.5-10-10-10c-1 0-1.8-.8-1.8-1.8s.8-1.8 1.8-1.8c7.5 0 13.5 6.1 13.5 13.6s-6.1 13.6-13.5 13.6M113.3 403c-.3 0-.6-.1-.8-.4-.3-.4-3.2-4.4-2.6-7.1.3-1.2 1-2.1 1.8-3 .9-1.1 1.8-2.1 1.9-3.8.1-.6.6-1 1.2-1 .6.1 1 .6 1 1.2-.2 2.4-1.4 3.8-2.4 5-.6.7-1.2 1.4-1.3 2.1-.3 1.4 1.4 4.2 2.2 5.3.4.5.3 1.1-.2 1.5-.4.1-.6.2-.8.2m-6.1-.8c-.1 0-.2 0-.3-.1-.2-.2-2.2-1.5-2.4-2.9-.1-.6.1-1.2.4-1.7.3-.7.5-1.3.3-2.1-.1-.3.1-.6.4-.6.3-.1.6.1.6.4.3 1.2-.1 2-.3 2.7-.2.4-.3.8-.3 1.2.1.6 1.2 1.6 1.9 2.2.2.2.3.5.1.7-.1.1-.2.2-.4.2m12.2.2c-.2 0-.4-.1-.5-.4-.1-.3-.9-2.6-.2-3.8.3-.5.8-.9 1.3-1.2.6-.4 1.1-.7 1.5-1.5.1-.3.4-.4.7-.2.2.1.4.4.3.7-.5 1.1-1.3 1.6-1.9 2-.4.3-.8.5-.9.8-.3.6 0 2 .3 2.9.1.3 0 .6-.3.7h-.3"/><path class="st14" d="M243.7 305.2c-.3 0-.7-.1-.9-.4l-4.7-4.3c-.6-.5-.6-1.4-.1-2 .5-.6 1.4-.6 2-.1l3.7 3.3 3.2-3.3c.5-.6 1.4-.6 2 0 .6.5.6 1.4 0 2l-4.1 4.3c-.3.4-.7.5-1.1.5"/><path class="st5" d="M215.9 318.3c-.3 0-.6-.1-.8-.3-1.4-1.5-2.6-3-3.8-4.7-.3-.5-.2-1.1.3-1.5.5-.3 1.1-.2 1.5.3 1.1 1.6 2.3 3 3.6 4.4.4.4.4 1.1 0 1.5-.3.2-.5.3-.8.3M239 330h-.1c-6.3-.7-12.4-3.1-17.6-6.7-.5-.3-.6-1-.3-1.5s1-.6 1.5-.3c5 3.5 10.7 5.6 16.7 6.3.6.1 1 .6 1 1.2-.2.5-.7 1-1.2 1m7.7.1c-.6 0-1.1-.4-1.1-1s.4-1.1 1-1.1c10.4-.9 19.9-6.2 26.2-14.5.4-.5 1-.6 1.5-.2s.6 1 .2 1.5c-6.7 8.7-16.8 14.3-27.8 15.3m28.8-17.7c-.6 0-1.1-.5-1.1-1.1 0-.2.1-.4.2-.6.6-.9 1.1-1.9 1.6-2.9.3-.5.9-.7 1.4-.5.5.3.7.9.5 1.4-.5 1.1-1.1 2.1-1.7 3.1-.2.5-.6.6-.9.6m3.2-6.5c-.6 0-1.1-.5-1.1-1.1 0-.1 0-.3.1-.4.5-1.3 1-2.7 1.3-4.1.1-.6.7-.9 1.3-.8s.9.7.8 1.3c-.4 1.5-.8 2.9-1.4 4.4-.2.5-.6.7-1 .7m-69.3 2.9c-.4 0-.8-.2-1-.6-.8-1.6-1.5-3.3-2-5-.2-.6.1-1.2.7-1.3.6-.2 1.2.1 1.3.7.5 1.6 1.1 3.2 1.9 4.8.3.5 0 1.2-.5 1.4-.1-.1-.3 0-.4 0"/><path class="st2" d="M117.6 426.2c-.8 0-1.4-.6-1.4-1.4v-10.5c0-.8.6-1.4 1.4-1.4.8 0 1.4.6 1.4 1.4v10.5c0 .8-.6 1.4-1.4 1.4 0 .1 0 .1 0 0m0 12c-.8 0-1.4-.6-1.4-1.4v-5.3c0-.8.6-1.4 1.4-1.4.8 0 1.4.6 1.4 1.4v5.3c0 .7-.6 1.4-1.4 1.4"/><path class="st15" d="M246.5 213.2s2.7 3.5 4.7 6.6c1.2 1.9.3 4.4-1.8 5.2-2.2.8-5.2 1.3-7.8 0l6.9-4-2-7.8z"/><path class="st16" d="M280 222.3c0 4.7-3.8 8.6-8.6 8.6s-8.6-3.8-8.6-8.6c0-4.7 3.8-8.6 8.6-8.6s8.6 3.9 8.6 8.6m-55.5 0c0 4.7-3.8 8.6-8.6 8.6-4.7 0-8.6-3.8-8.6-8.6 0-4.7 3.8-8.6 8.6-8.6 4.7 0 8.6 3.9 8.6 8.6"/><path class="st5" d="M73.6 210.5c-.5 0-.9-.2-1.2-.6-3.6-5.3-14.5-19.1-21.3-20.4-.1 0-.3 0-.4-.1-.8-.1-1.3-.9-1.2-1.6.1-.8.8-1.3 1.6-1.2.1 0 .3 0 .4.1 1.9.3 4.2.1 4.7-.6.4-.6.5-1.3.6-2 .2-1.1.4-2.7 2.1-3.6 1.3-.6 2.3-.5 3-.4.7.1 1 .1 1.5-.3.6-.5 1.5-.4 2 .2.5.6.4 1.5-.2 2-1.5 1.3-2.9 1.1-3.8 1-.6-.1-.9-.1-1.4.1-.4.2-.5.4-.6 1.4-.1.9-.3 2-1 3.2-.4.6-1 1.1-1.7 1.4 8.4 5.5 17.4 18.6 17.9 19.2.4.6.3 1.5-.4 2 0 .1-.3.2-.6.2"/><path class="st5" d="M77.5 207.6c-.4 0-.9-.2-1.1-.5-.6-.8-15.2-19.7-13.4-29.1.1-.8.9-1.3 1.6-1.1.8.1 1.3.9 1.1 1.7-1.2 6.8 8.9 21.7 12.9 26.8.5.6.4 1.5-.3 2-.2.1-.5.2-.8.2"/><path class="st5" d="M72 212l1.7 2.3 8.7-6.4-1.7-2.3L72 212zm1.4 5.7c-.5 0-.9-.2-1.1-.6l-3.4-4.6c-.5-.6-.3-1.5.3-2l11-8.1c.6-.5 1.5-.3 2 .3l3.4 4.6c.5.6.3 1.5-.3 2l-11 8.1c-.3.2-.6.3-.9.3z"/><path class="st5" d="M76.9 215.4l2.3 1.9 4.5-3.3-1.1-2.7-5.7 4.1zm2.2 5.1c-.3 0-.6-.1-.9-.3l-4.5-3.8c-.6-.5-.7-1.4-.2-2l.2-.2 8.5-6.3c.6-.5 1.5-.3 2 .3.1.1.1.2.2.3l2.2 5.4c.2.6.1 1.3-.5 1.7l-6.3 4.6c-.1.3-.4.3-.7.3zm-24.7-59.6c-3.7 0-7.3 1.2-10.3 3.4-7.8 5.7-9.5 16.8-3.8 24.6 2.5 3.4 6 5.8 10.1 6.7.1 0 .1 0 .2.1 9.1 3.5 14 7.8 14.2 8l.2.2 4.6 6.4 10.4-7.6-4.6-6.4c-.1-.1-.1-.2-.1-.3-.1-.3-2.8-6.3-3.3-16v-.2c.3-4.2-.9-8.3-3.3-11.7-3.6-4.7-8.9-7.2-14.3-7.2m14.9 52.8c-.4 0-.9-.2-1.1-.6l-5.4-7.4c-.7-.6-5.3-4.4-13.2-7.4-4.7-1.1-8.8-3.9-11.6-7.8-6.6-9.1-4.7-21.9 4.4-28.6 9.1-6.6 21.9-4.7 28.5 4.4 2.8 3.9 4.2 8.7 3.9 13.5.5 8.4 2.6 13.9 3 14.8l5.4 7.4c.5.6.3 1.5-.3 2l-12.7 9.3c-.3.3-.6.3-.9.4m190.8-162zm10.9 0zm-10.9 0zm10.9 0zm-1 33.6c-.8 0-1.4-.6-1.4-1.4V73.8c0-3-.3-3.6-9.3-8.1-.7-.4-1-1.2-.6-1.9.1-.2.3-.4.4-.5 1.2-.9 1.7-1.7 1.7-3.4 0-.4 0-.4-.3-.7-.4-.6-1.1-1.4-1.5-3.5-.9-.5-1.4-1.3-1.6-3.5v-.1c0-.9.2-1.6.5-2-.1-.9-.3-1.9-.3-2.8-.1-1.6.4-4 2-5.7 1-1.1 2.8-2.4 6-2.4 3.1 0 5 1.3 6 2.4 1.6 1.7 2.1 4.1 2 5.7-.1.9-.2 1.9-.3 2.8.3.4.5 1.1.5 2v.1c-.1 2.2-.7 3-1.6 3.5-.4 2.1-1 3-1.5 3.5-.3.4-.3.4-.3.7 0 2.2.7 3.3 4.5 4.9 4.5 1.9 6.8 3.1 7.9 5 .7 1.2.9 5.6.9 9.1 0 .8-.6 1.4-1.4 1.4-.8 0-1.4-.6-1.4-1.4 0-3.2-.3-7.1-.6-7.8-.7-1.2-2.7-2.2-6.5-3.8-4-1.7-6.2-3.4-6.2-7.5 0-1.3.5-2 .9-2.5.3-.4.7-.9.9-2.4.2-1.2.9-1.6 1.3-1.8 0-.1.1-.4.2-1.2 0-.1 0-.3-.1-.4-.4-.3-.6-.8-.5-1.3 0 0 .3-1.9.4-3.2.1-.8-.2-2.4-1.3-3.5-.9-1-2.2-1.5-3.9-1.5-1.7 0-3 .5-3.9 1.5-1 1.1-1.3 2.7-1.3 3.5.1 1.4.4 3.2.4 3.2.1.5-.1 1-.5 1.3 0 .1-.1.2-.1.4.1.8.2 1.1.2 1.2.3.2 1.1.6 1.3 1.8.2 1.5.6 1.9.9 2.4.4.5.9 1.1.9 2.5 0 1.8-.4 3.1-1.2 4.2 7.3 3.7 9.1 5.1 9.1 9.7v10.1c.1.9-.6 1.5-1.3 1.5zm-52.9-33.6zm10.9 0zm-10.9 0zm1.1 33.6c-.8 0-1.4-.6-1.4-1.4V73.8c0-4.6 1.8-6 9.1-9.7-.9-1.1-1.2-2.5-1.2-4.2 0-1.3.5-2 .9-2.5.3-.4.7-.9.9-2.4.2-1.2.9-1.6 1.3-1.8 0-.1.1-.4.2-1.2 0-.1 0-.3-.1-.4-.4-.3-.6-.8-.5-1.3 0 0 .3-1.9.4-3.2.1-.8-.2-2.4-1.3-3.5-.9-1-2.2-1.5-3.9-1.5-1.7 0-3 .5-3.9 1.5-1 1.1-1.3 2.7-1.3 3.5.1 1.4.4 3.2.4 3.2.1.5-.1 1-.5 1.3 0 .1-.1.3-.1.4.1.8.2 1.1.2 1.2.4.2 1.1.6 1.3 1.8.2 1.5.6 1.9.9 2.4.4.5.9 1.1.9 2.5 0 4.1-2.2 5.8-6.2 7.5-3.8 1.6-5.8 2.6-6.5 3.8-.3.6-.5 4.5-.5 7.7 0 .8-.6 1.4-1.4 1.4-.8 0-1.4-.7-1.4-1.4.1-3.5.3-8 .9-9.1 1.1-1.9 3.4-3.1 7.9-5 3.8-1.6 4.5-2.7 4.5-4.9 0-.4 0-.4-.3-.7-.4-.6-1.1-1.4-1.5-3.5-.9-.5-1.4-1.3-1.6-3.5v-.1c0-.9.2-1.6.5-2-.1-.9-.3-1.9-.3-2.8-.1-1.6.4-4 2-5.7 1-1.1 2.8-2.4 6-2.4s5 1.3 6 2.4c1.6 1.7 2.1 4.1 2 5.7-.1.9-.2 1.9-.3 2.8.3.4.5 1.1.5 2v.1c-.1 2.2-.7 3-1.6 3.5-.4 2.1-1 3-1.5 3.5-.3.4-.3.4-.3.7 0 1.7.4 2.6 1.7 3.4.6.5.8 1.3.3 2-.1.2-.3.3-.5.5-8.9 4.5-9.3 5-9.3 8.1V84c0 .7-.7 1.3-1.4 1.3z"/><path class="st5" d="M236.3 48zm15.1 0zm-15.1 0zm0 0zm15.1 0zm12.5 40.9c-.8 0-1.4-.6-1.4-1.4v-13c0-1.9-3-3.6-5.5-4.7h-.1c-.5-.3-1.1-.5-1.6-.7l-.3-.1c-5.2-2.2-8-4.4-8-9.6 0-1.6.6-2.3 1.1-3 .5-.6 1-1.3 1.3-3.4.2-1.4 1-1.9 1.5-2.1.2-.1.4-.2.6-2 0-.6-.1-.8-.2-.9-.4-.3-.7-.9-.6-1.4 0 0 .4-2.5.6-4.3.1-1-.2-3.3-1.8-5-1.3-1.4-3.1-2.1-5.5-2.1h-.1c-2.4 0-4.2.7-5.5 2.1-1.6 1.7-1.9 4-1.8 5 .2 1.9.5 4.3.6 4.3.1.5-.1 1.1-.6 1.4 0 .1-.2.3-.2.9.1 1.8.4 1.9.6 2 .4.2 1.2.7 1.5 2.1.3 2.1.9 2.8 1.3 3.4.5.7 1.1 1.4 1.1 3 0 5.2-2.8 7.4-8 9.6l-.3.1c-.5.2-1.1.4-1.6.7h-.1c-2.5 1.1-5.5 2.8-5.5 4.7v13c0 .8-.7 1.4-1.5 1.4-.7 0-1.3-.6-1.4-1.4v-13c0-3.7 4.1-5.9 7.1-7.2.6-.3 1.2-.6 1.8-.8l.3-.1c5.4-2.3 6.3-3.9 6.3-7 0-.6-.1-.8-.5-1.3-.6-.8-1.4-1.9-1.9-4.7-1.1-.6-1.8-1.5-2-4.4v-.1c0-1.3.3-2.1.7-2.6-.1-.9-.4-2.5-.5-3.9-.1-1.5.3-4.7 2.5-7.2 1.8-2 4.4-3 7.6-3h.1c3.2 0 5.8 1 7.6 3 2.3 2.5 2.7 5.7 2.5 7.2-.1 1.4-.3 3-.5 3.9.4.5.7 1.3.7 2.6v.1c-.2 2.8-.9 3.7-2 4.4-.5 2.8-1.3 3.9-1.9 4.7-.4.5-.5.6-.5 1.3 0 3.1.9 4.7 6.3 7l.3.1c.5.2 1.1.5 1.8.8 3.1 1.4 7.1 3.6 7.1 7.2v13c-.1.7-.7 1.4-1.5 1.4zM388.8 134c-.4 0-.8-.2-1.1-.5-19.8-24.1-49.8-42.7-84.6-52.5-.8-.2-1.2-1-.9-1.8.2-.7 1-1.1 1.7-1 35.3 9.9 65.8 28.9 86 53.4.5.6.4 1.5-.2 2-.2.3-.6.4-.9.4M87.2 156.2c-.8 0-1.4-.6-1.4-1.4 0-.2.1-.4.2-.6 17.2-33.9 52.2-61 96.1-74.5.8-.2 1.5.3 1.7 1 .2.7-.2 1.5-.9 1.7-43.1 13.2-77.5 39.9-94.4 73-.2.5-.7.8-1.3.8m68 152.9c-.2 0-.4 0-.6-.1-30.4-13.9-54.1-34.3-68.6-59.1-.4-.7-.2-1.5.5-1.9.7-.4 1.5-.2 1.9.5 14.2 24.2 37.5 44.3 67.3 57.9.7.3 1 1.2.7 1.9-.1.5-.6.8-1.2.8m177.1-1.7c-.8 0-1.4-.6-1.4-1.4 0-.5.3-1 .8-1.3 30.3-14.7 54.2-36.8 67.1-62.4.4-.7 1.2-1 1.9-.6s1 1.2.6 1.9c-13.2 26.1-37.5 48.7-68.4 63.6-.2.2-.4.2-.6.2m82.2-83.4c1.5.3 3-.1 4.3-1.1 1.4-1 2.3-2.6 2.7-4.4l2.7-12.9c2.2-10.7-2.3-21.1-10.8-25.3l-1-.5c-.7-.3-1-1.2-.6-1.9.2-.4.5-.7 1-.8l10.2-2.2 1.1-5.3c.2-1.1-.1-2.1-.8-2.8-.3-.3-.9-.7-1.9-.5-4.3 1-8.3 1.2-11.9.5-2.4-.5-5-1.6-7.7-3.1-1.4-.8-2.9-.9-4.4-.2-1.7.8-3 2.3-3.6 4.2l7.2 7.2c.4.4.5 1 .3 1.5s-.7.9-1.2.9c-9.3.7-17.3 8.5-19.4 18.9l-2.7 13.3c-.8 3.6 1.2 7.1 4.3 7.8l32.2 6.7zm1 3c-.5 0-1.1-.1-1.6-.2l-32.4-6.7c-4.6-1-7.6-6-6.5-11.1l2.7-13.3c2.2-10.5 9.8-18.7 19.1-20.7l-5.8-5.7c-.3-.3-.5-.8-.4-1.3.7-3.2 2.7-5.8 5.4-7 2.3-1 4.9-.9 7 .4 2.4 1.4 4.7 2.4 6.8 2.8 3.1.6 6.8.5 10.7-.4 1.6-.4 3.3.1 4.5 1.2 1.4 1.4 2 3.4 1.6 5.4l-1.3 6.2c-.1.5-.5 1-1.1 1.1l-7.4 1.6c8.2 5.4 12.3 16.1 10 27.1l-2.7 12.9c-.5 2.5-1.8 4.6-3.8 6.1-1.3 1-3 1.6-4.8 1.6z"/><path class="st5" d="M404.2 204.9c.2-1-.3-2-1.4-3l-.9 4.5c1.1.1 2.1-.5 2.3-1.5zm-1-11.6c-1.3-.1-2.1.5-2.3 1.3-.2 1 .3 1.9 1.4 2.9l.9-4.2zm-7.6 11.8c.6-.7 1.6-2.1 2.2-1.4.1.1 1.4 1.5 2.8 2.2.3-1.7.7-3.2 1-4.9-2.2-1.4-4.6-3.4-3.9-6.7.5-2.4 2.6-4.3 6.1-3.8l.2-.8c.1-.3.3-.4.6-.4l.3.1c.3.1.4.3.4.6l-.2.8c2.2.6 3.7 2.2 4.1 2.6.2.2.2.6 0 .9-.7.7-1.7 1.9-2.2 1.4-.2-.1-1.3-1.3-2.5-2l-1 4.6c2 1.4 4.8 3.5 4.1 6.9-.6 2.8-2.9 4.5-6.4 3.9l-.5 2.7c-.1.3-.3.4-.6.4-.3-.1-.8-.2-.7-.6l.5-2.7c-2.7-.8-4.1-2.4-4.5-3 0-.3-.2-.4.2-.8zm9.9-25.7h-.3c-5.8-1.4-9.9-6-10.1-6.2-.5-.6-.5-1.5.1-2s1.5-.5 2 .1c0 0 3.7 4.1 8.6 5.3.8.2 1.2.9 1.1 1.7-.1.6-.7 1.1-1.4 1.1"/></svg>